<svg width="32" height="32" viewBox="0 0 100 100" fill="none" xmlns="http://www.w3.org/2000/svg">
  <circle cx="50" cy="50" r="50" fill="#FF5A36" />
  <path d="M50 20C33.4315 20 20 33.4315 20 50C20 66.5685 33.4315 80 50 80C56.2428 80 62.0336 78.0931 66.8624 74.8876C63.6331 71.9701 61.5 67.7335 61.5 63C61.5 54.1634 68.6634 47 77.5 47C78.4069 47 79.2963 47.0754 80.1654 47.2211C78.3512 31.9566 65.4181 20 50 20Z" fill="white" />
  <path d="M60 70 L72 82 L95 55 L85 45 L72 62 L65 55 Z" fill="#FF5A36" />
</svg>
